# xmcd CD database file
#
# Track frame offsets:
#	150
#	14097
#	30802
#	47162
#	66235
#	91235
#	123307
#	164655
#	189112
#	216325
#	237630
#	261915
#	277792
#	296520
#
# Disc length: 4271 seconds
#
# Revision: 0
# Processed by: cddbd v1.5PL3 Copyright (c) Steve Scherf et al.
# Submitted via: CDex 1.50
#
DISCID=c910ad0e
DTITLE=バンバンバザール - HIGHLIGHT 2 (Acoustic Side)
DYEAR=2000
DGENRE=Blues
TTITLE0=ハニーサックル・ローズ
TTITLE1=盛り場に出ていこう
TTITLE2=I've Got The World On A String
TTITLE3=手紙でも書こう
TTITLE4=南の娘
TTITLE5=セントルイス・ブルース
TTITLE6=待ち合わせ
TTITLE7=風呂屋(Vo.友部正人)
TTITLE8=こんな気持ち
TTITLE9=スウィート・ハニー・ビー
TTITLE10=4時間座っていたけれど(Vo.吾妻光良)
TTITLE11=別にわざわざお前に会いに来たんじゃないぜ
TTITLE12=君のいない夏
TTITLE13=スウィート・ジョージア・ブラウン
EXTD=YEAR: 2000
EXTT0=
EXTT1=
EXTT2=
EXTT3=
EXTT4=
EXTT5=
EXTT6=
EXTT7=
EXTT8=
EXTT9=
EXTT10=
EXTT11=
EXTT12=
EXTT13=
PLAYORDER=
